<svg width="109" height="160" viewBox="0 0 109 160" fill="none" xmlns="http://www.w3.org/2000/svg">
<path d="M57.9877 15.5709C58.1046 15.5177 58.2214 15.4644 58.3382 15.4125L58.4444 14.7739C58.1182 14.6369 57.795 14.4842 57.4722 14.3316C56.7086 13.9708 55.947 13.6108 55.1503 13.4612C53.3084 13.1419 51.4311 13 49.5538 13C44.3115 13 39.9902 16.938 39.2818 22.2243C39.1401 23.2176 39.4943 23.8917 40.4507 23.6434C40.6191 23.6021 40.7899 23.5613 40.9622 23.5201C42.4204 23.1714 43.9858 22.7971 45.1262 21.9404C48.5975 19.386 52.2812 17.4347 56.39 16.193C56.9396 16.0481 57.466 15.8084 57.9877 15.5709Z" fill="black"/>
<path d="M53.521 27.6879C63.3679 25.3818 72.7898 26.4816 82.2118 30.8454C81.1137 28.0072 79.4844 26.0914 77.43 24.7432C68.2206 18.641 58.5153 17.7895 48.3495 22.1178C47.9768 22.2921 47.6215 22.5187 47.2224 22.7732L47.2207 22.7743C47.0515 22.8822 46.8744 22.9952 46.6848 23.1112C47.2716 23.327 47.8741 23.4991 48.4679 23.6687C50.7056 24.3079 52.8212 24.9122 53.521 27.6879Z" fill="black"/>
<path d="M56.8859 29.7101C57.7369 29.7533 58.5912 29.7734 59.4448 29.7936C61.3979 29.8398 63.3473 29.8858 65.2452 30.2068C69.1769 30.8454 73.1086 31.7323 76.9695 32.7612C84.7975 34.8189 90.2877 40.0696 94.6799 46.5621C95.9196 48.407 96.8051 50.4647 96.2738 53.1965C85.0454 41.8435 71.6918 34.677 56.7442 30.3842C56.7619 30.2777 56.7885 30.1624 56.8151 30.0471C56.8416 29.9318 56.8682 29.8165 56.8859 29.7101Z" fill="black"/>
<path d="M27.3804 46.8814C32.3039 48.9746 36.2356 46.9169 40.309 44.0077C40.7486 44.4828 41.1883 44.9503 41.6254 45.4152C42.5267 46.3737 43.4175 47.321 44.2761 48.3005C44.5241 48.5844 44.7366 49.0101 44.772 49.4004C45.1592 52.6392 45.517 55.878 45.8738 59.1073L45.8742 59.111C46.0722 60.9036 46.27 62.6933 46.4722 64.4785C44.5595 65.4009 43.5323 65.0816 42.9302 63.3077C42.6265 62.3953 42.4153 61.4367 42.2051 60.4827C42.0965 59.9898 41.9882 59.4982 41.8675 59.0149C40.6278 53.9415 37.5816 52.345 32.7644 54.3673C31.4892 54.8994 30.2495 55.7154 29.2223 56.6733C26.7074 59.0503 24.1217 59.0149 21.3589 57.241C21.2349 57.17 21.1021 57.0991 20.9693 57.0281C20.8365 56.9571 20.7036 56.8862 20.5797 56.8152C20.5592 56.7948 20.527 56.7979 20.4624 56.8043C20.4152 56.8089 20.3506 56.8152 20.2609 56.8152C20.6859 58.5537 21.9611 59.4761 23.3779 59.7599C24.5971 59.9723 25.856 59.8867 27.1249 59.8004C27.5516 59.7714 27.9798 59.7423 28.4076 59.7244C28.5209 59.7244 28.6196 59.6664 28.7224 59.606C28.7804 59.572 28.8397 59.5371 28.9035 59.5116L29.1274 59.421C31.4323 58.4877 33.8285 57.5173 36.0585 59.4761C38.6442 61.7821 39.5298 64.7978 38.6797 68.1682C37.617 72.461 34.7125 75.2992 31.383 77.286C31.3936 76.6153 31.4585 75.9158 31.5239 75.2096C31.6767 73.5626 31.8328 71.879 31.3121 70.4387C30.5962 68.4733 28.6693 68.3173 26.661 68.1547C25.9866 68.1 25.303 68.0447 24.653 67.9198C25.5031 67.1393 26.247 66.4652 27.0971 65.7202C22.1028 65.6492 18.5961 70.9354 20.6151 75.1928C21.7131 77.5343 21.6423 79.2727 20.3317 80.1952C18.9857 81.1531 16.9313 80.7983 15.1603 79.2373C14.7353 78.847 14.3101 78.4567 13.6726 77.8891C13.5894 78.1911 13.5093 78.4778 13.4305 78.7599L13.4301 78.7615C13.2404 79.4401 13.058 80.0928 12.8579 80.8693C12.6055 80.7194 12.3605 80.5745 12.1183 80.4313C11.443 80.032 10.7897 79.6457 10.0597 79.2018L10.0066 79.3536C9.7813 79.9981 9.58646 80.5554 9.42212 81.0821C6.87183 80.2661 5.02995 76.8248 5.13621 72.8512C6.07792 72.9169 7.031 72.9066 7.98492 72.8964C11.1572 72.8623 14.339 72.8282 17.1438 75.5831C17.2147 73.5253 16.4 72.39 14.9832 71.9288C13.9225 71.5815 12.8384 71.3283 11.751 71.0744C10.9505 70.8875 10.1472 70.6999 9.35128 70.4742C9.22052 70.4368 9.08897 70.3998 8.95704 70.3627C7.83824 70.0478 6.69264 69.7253 5.77379 69.0906C4.32153 68.0972 4.46322 66.3588 6.05715 65.6138C8.67829 64.4075 9.81175 62.5272 9.28044 59.4051C6.4822 61.7467 3.47144 61.1435 0.0710449 60.2921C0.222505 59.9684 0.362452 59.6448 0.49991 59.3269C0.844647 58.5297 1.17374 57.7686 1.62956 57.1345C4.32153 53.2674 7.6865 50.0744 11.4765 47.2717C12.5746 46.4557 13.4247 46.3847 14.4519 47.5555C15.3628 48.588 16.3874 49.523 17.4376 50.4814C17.9391 50.9391 18.4466 51.4022 18.9503 51.8838C18.8086 49.6842 20.2255 48.5489 22.0673 47.8393C23.4487 47.3072 23.5904 46.3847 23.2362 45.072C22.9455 45.2878 22.6678 45.5035 22.3953 45.7152C21.7714 46.1999 21.1744 46.6637 20.5088 47.0588C17.5689 48.9391 16.4354 48.5489 14.8415 45.072C15.4093 44.7471 16.0216 44.4686 16.6347 44.1898C18.6991 43.2511 20.7722 42.3084 21.1818 39.573L20.7922 39.1827C20.6123 39.3946 20.4388 39.6192 20.265 39.8442C19.8569 40.3724 19.4471 40.9027 18.9503 41.2759C18.6671 41.4887 18.2423 41.4809 17.8122 41.473C17.5968 41.4691 17.3802 41.4651 17.1793 41.4888C17.1903 41.3227 17.1841 41.1463 17.1779 40.9692C17.1642 40.5788 17.1504 40.1851 17.321 39.8923C20.6151 34.677 25.1135 31.1292 31.2767 29.8875C32.6476 29.6082 33.1345 30.4434 33.6171 31.2714C33.8703 31.7057 34.1223 32.1379 34.5 32.4064C34.5709 32.4419 33.8979 33.6836 33.4374 34.2868C33.2013 34.6021 32.9105 34.8627 32.6197 35.1233C32.387 35.3318 32.1544 35.5403 31.9497 35.7768C30.5329 37.4443 30.4975 39.0053 31.8435 40.7437C34.8626 44.6145 34.3819 44.7478 31.849 45.4497C31.4103 45.5713 30.91 45.71 30.3558 45.888C29.8599 46.0477 29.364 46.2162 28.8681 46.3847C28.3722 46.5533 27.8763 46.7218 27.3804 46.8814Z" fill="black"/>
<path d="M94.5736 79.7339C93.0505 87.539 88.6583 93.3574 82.2826 98.1824C84.9037 84.5234 82.6722 72.6738 72.2585 63.3076C72.1523 63.3431 72.0371 63.3786 71.922 63.414C71.8069 63.4495 71.6918 63.485 71.5855 63.5205C71.7272 63.8751 71.8688 64.2386 72.0104 64.6021L72.0111 64.6038C72.1526 64.967 72.2941 65.3302 72.4356 65.6846C75.5527 73.7736 77.5717 82.0399 76.7924 90.7675C76.2611 96.6923 74.4546 102.227 70.8063 107.016C69.2478 109.039 67.3705 110.706 64.7848 111.735C64.9143 110.852 65.0534 109.998 65.1898 109.161C65.4263 107.708 65.6547 106.305 65.812 104.888C66.8392 95.9827 65.6349 87.1842 63.8992 78.4921C63.1726 74.7895 62.2204 71.1151 61.269 67.4438L61.2675 67.4377L61.2659 67.4318C61.1518 66.9913 61.0376 66.5508 60.9239 66.1103C59.8259 62.0304 57.8423 58.3407 55.3628 54.8993C54.9378 54.2962 54.5482 53.6931 54.2648 52.948C58.8341 55.0767 61.8803 58.8374 64.7848 62.8819C65.9182 58.1278 62.9429 53.1964 53.7689 44.5753C54.533 43.5548 55.3258 42.5343 56.1986 41.4107L56.4963 41.0275C57.6148 41.4239 58.7332 41.8286 59.9086 42.254C61.1526 42.7042 62.4604 43.1775 63.8992 43.6883C61.9511 40.6017 59.5779 38.9343 56.5317 38.3666C55.1149 38.1183 54.619 37.5506 54.7253 36.2025C54.7724 35.5178 54.7568 34.8175 54.7411 34.1119C54.7332 33.7573 54.7253 33.4009 54.7253 33.0449C72.1169 35.8832 85.7184 43.8302 92.8026 60.7887C93.5167 62.5219 94.2947 64.2337 95.0706 65.9408C95.2952 66.4349 95.5199 66.9293 95.7425 67.423C98.0448 72.5673 101.551 76.5763 106.652 79.0598C106.991 79.2181 107.301 79.4052 107.674 79.6304C107.886 79.7584 108.118 79.8989 108.388 80.0532C103.613 82.6362 99.2502 81.2354 94.7926 79.8042L94.5736 79.7339Z" fill="black"/>
<path d="M12.0787 127.629C15.4436 135.434 20.7568 141.465 28.8327 144.587C28.9744 144.481 29.1161 144.339 29.1515 144.162C28.7607 143.678 28.3736 143.187 27.9854 142.695C27.1773 141.67 26.3645 140.639 25.5031 139.656C21.9611 135.683 19.1628 131.248 17.7814 126.068C15.7624 118.511 16.8959 111.416 21.3589 104.959C21.7325 104.444 22.183 104.007 22.6901 103.514C22.9523 103.26 23.23 102.99 23.5196 102.688C23.5574 102.903 23.5908 103.059 23.6165 103.18C23.6628 103.397 23.6841 103.496 23.6613 103.611L23.6348 103.797C23.5723 104.239 23.5064 104.706 23.4133 105.172C23.3037 105.814 23.1914 106.455 23.0791 107.096C22.2115 112.048 21.349 116.97 21.8194 122.059C22.8466 133.022 31.7726 144.517 46.9327 147C46.1046 146.556 45.326 146.155 44.5812 145.771C43.542 145.236 42.5688 144.735 41.6196 144.197C34.1104 140.011 29.9662 133.589 29.1515 125.004C28.6556 119.93 29.8599 115.141 31.3121 110.387C33.7562 102.44 34.5 94.3153 33.827 86.0489C33.7327 85.0334 33.4814 84.0493 33.2195 83.0234C33.0879 82.5082 32.9536 81.9823 32.8352 81.4368C32.4456 81.6852 19.1628 89.987 19.1274 89.987C19.7043 90.3525 20.2773 90.7181 20.8503 91.0836L20.8516 91.0845L20.855 91.0867C22.0042 91.8199 23.1536 92.5532 24.3343 93.2864C18.7378 99.4951 11.8662 99.6725 4.49863 98.1114C5.45499 102.262 8.39492 103.327 11.8661 103.611C8.96165 111.77 8.67828 119.753 12.0787 127.629Z" fill="black"/>
<path d="M59.6133 134.867C52.5646 133.306 48.3141 128.019 47.3932 120.108C46.5076 112.551 47.8182 105.278 49.908 98.0761C52.9542 87.6456 54.3356 77.0377 52.6708 66.1814C52.3149 63.8046 51.6728 61.4756 51.0321 59.1516C50.7164 58.0067 50.4011 56.863 50.1206 55.7154C50.0143 55.3252 49.9434 54.9349 50.2622 54.3673C50.6142 54.9587 50.9808 55.5427 51.3478 56.1277C52.126 57.3676 52.9066 58.6115 53.5564 59.9373C58.0548 68.8777 60.853 78.3503 61.8094 88.3551C62.3407 93.8542 61.0656 98.9985 59.082 104.072C58.8588 104.651 58.6333 105.23 58.4077 105.809C56.4499 110.834 54.4859 115.874 53.946 121.314C53.9106 121.491 53.8752 121.669 53.8752 121.846C53.4501 127.168 54.1231 132.064 59.6133 134.867Z" fill="black"/>
<path d="M45.6575 97.1181C48.4203 89.1001 48.81 80.9756 46.4722 72.2481C45.9095 72.7331 45.3564 73.212 44.8103 73.6849C42.4004 75.7718 40.1266 77.7409 37.7587 79.592C36.7315 80.4435 36.1648 81.1176 36.944 82.5012C37.3691 83.2817 37.5107 84.346 37.4399 85.2685C37.3641 86.2553 37.2948 87.2454 37.2254 88.237C36.9704 91.8797 36.714 95.5429 36.1293 99.1403C35.7119 101.716 35.1056 104.268 34.4996 106.818C33.8201 109.678 33.1409 112.537 32.729 115.425C30.9933 127.806 38.7859 137.598 51.1477 138.982C52.0687 139.088 52.9896 139.159 54.371 139.266C53.6833 138.813 53.0228 138.385 52.3851 137.972C50.7235 136.895 49.2162 135.918 47.7828 134.867C43.7448 131.957 40.4507 128.339 39.8839 123.194C39.5297 119.966 39.4589 116.525 40.2381 113.402C41.1972 109.56 42.5489 105.82 43.9021 102.076C44.498 100.428 45.0944 98.7777 45.6575 97.1181Z" fill="black"/>
<path d="M38.5734 31.413C38.6442 28.1135 41.1945 25.4882 44.3824 25.3817C47.3932 25.2753 50.156 27.6878 50.156 30.8808C50.156 33.8255 49.908 36.7701 49.4476 39.6793C48.9517 42.6595 45.02 44.5043 42.6822 42.7659C44.7354 41.9838 44.6873 40.4214 44.6391 38.8509C44.6282 38.4978 44.6173 38.1441 44.6303 37.799L44.8429 32.4773C44.8483 32.3791 44.8554 32.2775 44.8627 32.1741C44.9026 31.6055 44.9463 30.9817 44.7366 30.5615C44.347 29.8165 43.6386 28.8231 43.001 28.7521C42.3634 28.6812 41.2654 29.4617 40.982 30.1358C40.4507 31.342 39.8485 31.7677 38.5734 31.413Z" fill="black"/>
<path d="M36.3065 28.149C32.7644 26.1623 31.0996 21.9404 32.2685 18.0733C33.2957 14.7384 36.3773 13.1064 41.1237 13.5676C40.972 13.8025 40.8363 14.032 40.7064 14.2519C40.5026 14.5967 40.3127 14.918 40.0965 15.1996C38.1129 17.825 37.192 20.6632 37.865 23.9981C38.2546 26.0558 37.9004 26.6235 36.3065 28.149Z" fill="black"/>
<path d="M20.8984 22.6145C21.536 25.8075 19.8712 26.7299 17.4626 26.588C19.3399 28.2909 21.2172 29.9939 23.2008 31.8387C23.9895 31.3449 24.9917 30.7596 26.1508 30.0826L26.4241 29.9229C25.6105 28.7421 24.8124 27.6002 24.0263 26.4755C23.1354 25.2008 22.2599 23.9481 21.3943 22.6854C21.3058 22.6677 21.2261 22.6588 21.1464 22.6499C21.0667 22.6411 20.987 22.6322 20.8984 22.6145Z" fill="black"/>
<path d="M24.653 21.9759L25.5113 21.7201C26.8638 21.3171 28.1775 20.9257 29.6119 20.4858C29.1869 23.395 30.1078 25.914 32.5873 27.8298C28.9389 29.4617 24.9718 26.4107 24.653 21.9759Z" fill="black"/>
<path d="M7.82816 61.8176H0.850268C1.5941 63.6624 3.4714 65.4363 4.67571 65.3299C6.05712 65.188 7.58021 63.3786 7.82816 61.8176Z" fill="black"/>
</svg>
