<svg width="50" height="49" viewBox="0 0 50 49" fill="none" xmlns="http://www.w3.org/2000/svg">
<g clip-path="url(#clip0_3135_402)">
<rect x="13" y="11" width="25" height="24" fill="#D9D9D9"/>
<path d="M41.1104 0.808594C45.9353 0.808594 49.8368 4.65575 49.8369 9.41406V39.585C49.8367 44.3432 45.9353 48.1904 41.1104 48.1904H9.28613C4.46121 48.1904 0.559742 44.3432 0.55957 39.585V9.41406C0.559688 4.65575 4.46117 0.808594 9.28613 0.808594H41.1104ZM36.7178 11.1953H32.5498C32.4065 11.1954 32.3449 11.2766 32.3447 11.418V17.8174C32.0984 17.7971 31.8928 17.7966 31.708 17.7764C31.5235 17.7562 31.3799 17.7559 31.2773 17.7559C29.2447 17.7559 27.5193 18.141 26.082 18.9307C24.7271 19.6596 23.5985 20.7533 22.8184 22.0693C22.0587 23.3652 21.6679 24.8434 21.6885 26.3418C21.6885 28.1843 22.0587 29.7229 22.8184 30.958C23.5575 32.1526 24.6246 33.1247 25.918 33.7119C27.2936 34.3396 28.8136 34.6433 30.333 34.623C31.4004 34.623 32.4678 34.522 33.4941 34.3398C34.6439 34.1374 35.7741 33.8136 36.8418 33.3682C36.9853 33.3074 37.0469 33.1856 37.0469 33.0439C37.0263 32.6997 37.0059 32.2944 36.9648 31.8691C36.9443 31.4238 36.9238 31.0187 36.9238 30.6543V11.3379C36.9033 11.2569 36.8204 11.1751 36.7178 11.1953ZM18.1777 12.9365H14.1748C13.99 12.9365 13.8867 13.018 13.8867 13.2002V34.0557C13.8867 34.2784 13.9695 34.3799 14.1543 34.3799H18.1777C18.3625 34.3799 18.4658 34.2784 18.4658 34.0557V13.2002C18.4658 13.1799 18.4658 13.1589 18.4453 13.1387C18.4247 12.9971 18.3008 12.9163 18.1777 12.9365ZM31.1133 21.5225C31.3389 21.5225 31.5645 21.5423 31.79 21.5625C31.9748 21.5827 32.16 21.6236 32.3447 21.6641V30.5732C32.1189 30.6542 31.8724 30.6951 31.6055 30.6748C31.3386 30.695 31.0511 30.7148 30.7432 30.7148C30.1683 30.7148 29.5934 30.6344 29.0391 30.4521C28.5053 30.2902 28.0327 30.007 27.6426 29.6426C27.2319 29.2376 26.9241 28.7508 26.7188 28.2041C26.4725 27.5361 26.3496 26.8276 26.3701 26.1191C26.3701 25.0662 26.5961 24.1948 27.0479 23.5469C27.4995 22.8991 28.095 22.393 28.793 22.0488C29.5115 21.6844 30.3126 21.5225 31.1133 21.5225Z" fill="#C2C2C2"/>
</g>
<defs>
<clipPath id="clip0_3135_402">
<rect width="50" height="49" fill="white"/>
</clipPath>
</defs>
</svg>
