<svg width="63" height="61" viewBox="0 0 63 61" fill="none" xmlns="http://www.w3.org/2000/svg">
<path d="M51.4287 0C57.5209 0.000234965 62.4463 4.9532 62.4463 11.0791V49.9209C62.4462 56.0467 57.5208 60.9998 51.4287 61H11.2451C5.15283 61 0.226667 56.0469 0.226562 49.9209V11.0791C0.226562 4.95306 5.15277 0 11.2451 0H51.4287ZM44.8428 21.9756C43.0022 21.9756 41.4723 22.2621 40.2539 22.8877C39.1391 23.4091 38.1794 24.2434 37.5312 25.2861C36.9609 26.2506 36.6504 27.3196 36.6504 28.4404C36.6245 29.3528 36.8314 30.2655 37.2461 31.0996C37.7387 31.9859 38.4131 32.7419 39.2168 33.3154C40.3575 34.0975 41.5763 34.7232 42.8984 35.1924C44.1686 35.6876 45.0237 36.0791 45.4385 36.418C45.8531 36.7568 46.0604 37.0951 46.0605 37.46C46.0605 37.929 45.7759 38.3721 45.3613 38.5547C44.8947 38.7893 44.1941 38.9199 43.209 38.9199C42.1722 38.9199 41.1354 38.7899 40.1504 38.5293C39.0098 38.2686 37.9466 37.8515 36.9355 37.252C36.8578 37.1998 36.7799 37.1735 36.7021 37.2256C36.6245 37.2777 36.5987 37.3818 36.5986 37.46V41.9961C36.5727 42.2046 36.7023 42.3869 36.8838 42.4912C37.7134 42.8822 38.621 43.1688 39.5283 43.3252C40.6948 43.5598 41.8613 43.6641 43.0537 43.6641C44.9203 43.6641 46.4758 43.3775 47.7461 42.8301C48.9127 42.3608 49.9235 41.5525 50.6494 40.5098C51.3234 39.4931 51.6871 38.2681 51.6611 37.043C51.687 36.1047 51.4792 35.1925 51.0645 34.3584C50.5719 33.4721 49.8721 32.7418 49.0166 32.1943C47.7723 31.4123 46.4243 30.7602 45.0244 30.291C44.4023 30.0304 43.7798 29.7444 43.1836 29.4316C42.8466 29.2492 42.5351 29.0143 42.3018 28.7275C42.1463 28.5191 42.043 28.2844 42.043 28.0498C42.043 27.8152 42.1204 27.5542 42.25 27.3457C42.4315 27.085 42.7167 26.9024 43.0537 26.8242C43.5463 26.6939 44.0909 26.6155 44.6094 26.6416C45.5944 26.6416 46.5536 26.772 47.5127 26.9805C48.3941 27.1629 49.2242 27.4501 50.002 27.8672C50.1055 27.9191 50.235 27.9192 50.4678 27.8672C50.5455 27.8151 50.5977 27.7107 50.5977 27.6064V23.3574C50.5977 23.2533 50.5718 23.1491 50.5459 23.0449C50.4941 22.9407 50.3907 22.8357 50.2871 22.8096C49.5872 22.5229 48.8352 22.3142 48.0576 22.21C46.9948 22.0536 45.9056 21.9756 44.8428 21.9756ZM22.5225 15.5107C21.7448 15.5107 20.9667 15.511 20.1631 15.5371C19.3594 15.5632 18.6072 15.5628 17.9072 15.5889C17.2075 15.6149 16.5595 15.6156 15.9375 15.6416C15.3412 15.6677 14.9261 15.667 14.4854 15.667C14.3039 15.667 14.2266 15.7716 14.2266 15.9541V42.7783C14.2266 43.0129 14.3298 43.1172 14.5371 43.1172H19.5664C19.7479 43.0911 19.8775 42.9344 19.8516 42.752V34.3848C20.3441 34.3848 20.7075 34.3841 20.9668 34.4102C21.226 34.4362 21.6407 34.4365 22.2627 34.4365C24.3885 34.4365 26.3328 34.2015 28.0957 33.5498C29.7807 32.9242 31.2326 31.8298 32.2695 30.3701C33.3065 28.9103 33.8252 27.0592 33.8252 24.8174C33.8252 23.6445 33.6183 22.5234 33.2295 21.4287C32.8148 20.308 32.1663 19.2911 31.3369 18.457C30.3518 17.4925 29.1585 16.7625 27.8623 16.3193C26.4106 15.772 24.6481 15.5108 22.5225 15.5107ZM22.7031 20.6465C23.766 20.6204 24.8035 20.7769 25.7627 21.168C26.5143 21.4547 27.1365 21.9757 27.5771 22.6533C27.9919 23.3571 28.1997 24.1655 28.1738 24.9736C28.1738 26.1206 27.9145 27.0075 27.3701 27.6592C26.7998 28.3108 26.0736 28.8054 25.2441 29.04C24.2849 29.3529 23.2738 29.5098 22.2627 29.5098H20.8887C20.5777 29.5098 20.2408 29.4831 19.8779 29.457V20.6982C20.0595 20.6722 20.4223 20.6468 20.9404 20.6729C21.4329 20.6468 22.0292 20.6465 22.7031 20.6465Z" fill="#C2C2C2"/>
</svg>
