<svg width="63" height="63" viewBox="0 0 63 63" fill="none" xmlns="http://www.w3.org/2000/svg">
<rect x="13" y="14" width="35" height="31" fill="white"/>
<path d="M51.4492 1C57.5414 1.00024 62.4668 5.95321 62.4668 12.0791V50.9209C62.4667 57.0467 57.5413 61.9998 51.4492 62H11.2656C5.17332 62 0.247147 57.0469 0.24707 50.9209V12.0791C0.24707 5.95306 5.17327 1 11.2656 1H51.4492ZM41.752 23.2627C41.5186 23.2627 41.415 23.3672 41.415 23.6279V43.7002C41.415 43.9609 41.5445 44.1172 41.8037 44.1172H46.8848C47.1181 44.1172 47.2217 43.9869 47.2217 43.7002V23.6279C47.2217 23.3933 47.1181 23.2627 46.8848 23.2627H41.752ZM22.0225 16.5107C21.893 16.537 21.7895 16.6676 21.8154 16.7979C21.8154 17.3713 21.7638 17.9448 21.6602 18.4922C21.5565 18.805 21.4782 19.0919 21.4004 19.3525L13.0527 43.5176C12.975 43.8303 13.0528 43.9872 13.3379 43.9873H18.2119C18.4452 44.0133 18.6522 43.8566 18.7041 43.6221L20.6748 37.4961H30.3193L32.4443 43.7002C32.4962 43.8826 32.678 44.0133 32.8594 43.9873H38.2773C38.5365 43.9873 38.6147 43.8567 38.5371 43.5703L29.0742 16.7197C29.0483 16.5894 28.9447 16.5107 28.7373 16.5107H22.0225ZM25.4453 21.334C25.6267 21.9595 25.8083 22.6374 26.0156 23.3672C26.223 24.1229 26.4557 24.8787 26.7148 25.6865C26.9741 26.4945 27.2076 27.277 27.4668 28.085C27.7001 28.867 27.9337 29.6233 28.167 30.3271C28.4003 31.0049 28.6081 31.6567 28.7637 32.2041H22.1787C22.5676 31.1093 22.9564 29.8841 23.3193 28.5547C23.7341 27.2513 24.1228 25.9476 24.5117 24.6963C24.8746 23.5755 25.1602 22.4548 25.3936 21.334H25.4453ZM44.3701 14.5293C43.5146 14.5293 42.6847 14.8428 42.0625 15.4424C41.4405 16.0419 41.104 16.8765 41.1299 17.7627C41.1041 18.6487 41.4148 19.5086 42.0107 20.1602C42.6329 20.7597 43.4628 21.0993 44.3184 21.0732C45.1998 21.1254 46.0815 20.7858 46.6777 20.1602C47.2996 19.5086 47.6108 18.6487 47.585 17.7627C47.6109 16.9025 47.2997 16.068 46.7295 15.4424C46.1591 14.8428 45.3812 14.5293 44.3701 14.5293Z" fill="#C2C2C2"/>
</svg>
