<svg width="63" height="61" viewBox="0 0 63 61" fill="none" xmlns="http://www.w3.org/2000/svg">
<g clip-path="url(#clip0_3138_411)">
<rect x="8" y="15" width="46" height="29" fill="white"/>
<path d="M51.6904 0C57.8165 0 62.7695 4.95303 62.7695 11.0791V49.9209C62.7695 56.047 57.8165 61 51.6904 61H11.2852C5.15909 61 0.206055 56.047 0.206055 49.9209V11.0791C0.206055 4.95303 5.15909 0 11.2852 0H51.6904ZM44.9131 21.9756C43.2448 21.9756 41.7847 22.1846 40.5596 22.7842C39.3345 23.3837 38.2654 24.2181 37.4053 25.2607C36.5191 26.3294 35.8672 27.5288 35.4502 28.832C35.0071 30.1874 34.7988 31.569 34.7988 32.9766C34.7988 34.2798 34.9808 35.5571 35.3457 36.7822C35.7106 38.0334 36.3105 39.1807 37.1445 40.1973C38.0309 41.2661 39.1523 42.1264 40.4297 42.6738C41.7852 43.2734 43.4535 43.5859 45.4346 43.5859C46.6859 43.612 47.9115 43.5081 49.1367 43.2734C50.049 43.117 50.9091 42.8561 51.7432 42.4912C51.8213 42.4391 51.8737 42.3868 51.9258 42.3086C51.9518 42.2045 51.9775 42.1002 51.9775 41.9961V38.0078C51.9775 37.7473 51.8997 37.6949 51.7695 37.7988C51.0396 38.0856 50.2573 38.2942 49.4492 38.3984C48.563 38.5809 47.6506 38.6595 46.7383 38.6855C45.5913 38.7116 44.444 38.4773 43.4014 38.0342C42.6193 37.7214 41.9673 37.1736 41.498 36.4697C41.0549 35.7659 40.7947 34.9575 40.6904 34.1494H48.9541C49.6316 34.1494 50.2571 34.2539 50.8564 34.2539C51.456 34.2539 51.952 34.2279 52.3691 34.1758C52.7861 34.1497 53.0731 34.123 53.2295 34.123C53.4118 34.1228 53.5677 33.9665 53.5938 33.7842C53.6198 33.5495 53.6461 33.1845 53.6982 32.6895C53.7243 32.1943 53.75 31.647 53.75 31.0215C53.75 29.9527 53.5938 28.8836 53.2549 27.8408C52.916 26.7461 52.3691 25.7554 51.6914 24.8691C50.9616 23.9568 50.0228 23.2534 48.9541 22.7842C47.6768 22.2107 46.2947 21.9495 44.9131 21.9756ZM16.9941 15.6934C16.8639 15.7195 16.7601 15.8502 16.7861 15.9805C16.7861 16.5539 16.7332 17.1275 16.6289 17.6748C16.5247 17.9874 16.4463 18.2219 16.3682 18.4824L7.97461 42.5439C7.89647 42.8567 7.97501 43.0127 8.26172 43.0127H13.1621C13.3966 43.0387 13.6049 42.8828 13.6572 42.6484L15.6387 36.4961H25.3359V36.3652L27.4736 42.6221C27.5258 42.8044 27.7083 42.9351 27.8906 42.9092H33.3389C33.5996 42.9092 33.6778 42.778 33.5996 42.4912L24.085 15.9023C24.0589 15.772 23.9285 15.6934 23.7461 15.6934H16.9941ZM21.0088 22.4707C21.2173 23.2267 21.4522 23.9829 21.7129 24.791C21.9736 25.5991 22.2081 26.3813 22.4688 27.1895C22.7034 27.9715 22.9382 28.7278 23.1729 29.4316C23.4074 30.1093 23.6161 30.7612 23.7725 31.3086H17.1504C17.5414 30.2138 17.959 28.9885 18.2979 27.6592C18.7149 26.3558 19.1061 25.052 19.4971 23.8008C19.862 22.6798 20.1482 21.5584 20.3828 20.4375H20.4355C20.618 21.063 20.8003 21.7409 21.0088 22.4707ZM44.7305 26.4854C46.2685 26.4332 47.6509 27.424 48.1201 28.8838C48.2244 29.1966 48.2764 29.5098 48.2764 29.8486V30.1094C48.094 30.2397 47.8852 30.2913 47.6768 30.3174C47.3639 30.3435 46.8682 30.3438 46.1904 30.3438H40.6904C40.7686 29.6921 40.9509 29.0663 41.2637 28.4668C41.9414 27.1635 43.2968 26.4073 44.7305 26.4854Z" fill="#C2C2C2"/>
</g>
<defs>
<clipPath id="clip0_3138_411">
<rect width="63" height="61" fill="white"/>
</clipPath>
</defs>
</svg>
