<svg width="56" height="57" viewBox="0 0 56 57" fill="none" xmlns="http://www.w3.org/2000/svg">
<path d="M27.9102 25.1094C29.9293 25.1095 31.5664 26.7464 31.5664 28.7656C31.5663 30.7847 29.9292 32.4217 27.9102 32.4219C25.8909 32.4219 24.254 30.7848 24.2539 28.7656C24.2539 26.7463 25.8909 25.1094 27.9102 25.1094Z" fill="#C2C2C2" stroke="#C2C2C2" stroke-width="2.35887"/>
<path d="M27.9095 38.6749C42.2399 38.6749 53.8571 34.2392 53.8571 28.7676C53.8571 23.296 42.2399 18.8604 27.9095 18.8604C13.579 18.8604 1.96191 23.296 1.96191 28.7676C1.96191 34.2392 13.579 38.6749 27.9095 38.6749Z" stroke="#C2C2C2" stroke-width="2.35887"/>
<path d="M19.3286 33.7203C26.4938 46.1308 36.1437 53.9738 40.8823 51.2379C45.6209 48.5021 43.6537 36.2236 36.4884 23.8131C29.3232 11.4025 19.6733 3.55961 14.9347 6.29542C10.1961 9.03124 12.1633 21.3098 19.3286 33.7203Z" stroke="#C2C2C2" stroke-width="2.35887"/>
<path d="M19.3292 23.814C12.164 36.2245 10.1968 48.5031 14.9354 51.2389C19.674 53.9747 29.3239 46.1318 36.4891 33.7213C43.6543 21.3107 45.6215 9.03219 40.883 6.29637C36.1444 3.56056 26.4945 11.4035 19.3292 23.814Z" stroke="#C2C2C2" stroke-width="2.35887"/>
</svg>
