<svg width="55" height="55" viewBox="0 0 55 55" fill="none" xmlns="http://www.w3.org/2000/svg">
<path d="M27.6553 0.551758C13.9003 0.551758 14.7587 6.5167 14.7587 6.5167L14.7756 12.6967H27.9009V14.5507H9.55903C9.55903 14.5507 0.759766 13.5517 0.759766 27.4321C0.759766 41.3091 8.44156 40.8181 8.44156 40.8181H13.0266V34.3774C13.0266 34.3774 12.7794 26.6956 20.5865 26.6956H33.6034C33.6034 26.6956 40.9177 26.8141 40.9177 19.6267V7.74254C40.9177 7.74254 42.0284 0.551758 27.6553 0.551758ZM20.4172 4.70673C21.7226 4.70673 22.7791 5.76326 22.7791 7.06867C22.7791 8.37408 21.7226 9.4306 20.4172 9.4306C20.1069 9.43105 19.7995 9.37026 19.5128 9.25172C19.226 9.13318 18.9654 8.95922 18.746 8.7398C18.5266 8.52039 18.3526 8.25983 18.2341 7.97307C18.1156 7.6863 18.0548 7.37897 18.0552 7.06867C18.0552 5.76326 19.1117 4.70673 20.4172 4.70673Z" fill="#C2C2C2"/>
<path d="M28.043 54.4494C41.7981 54.4494 40.9397 48.4845 40.9397 48.4845L40.9228 42.3045H27.7975V40.4505H46.1377C46.1377 40.4505 54.9386 41.4495 54.9386 27.5708C54.9386 13.6921 47.2568 14.1848 47.2568 14.1848H42.6718V20.6238C42.6718 20.6238 42.919 28.3056 35.1119 28.3056H22.095C22.095 28.3056 14.7806 28.1871 14.7806 35.3745V47.2586C14.7806 47.2586 13.6699 54.4494 28.043 54.4494ZM35.2812 50.2945C34.9709 50.2949 34.6636 50.2341 34.3768 50.1156C34.0901 49.997 33.8295 49.8231 33.6101 49.6037C33.3907 49.3842 33.2167 49.1237 33.0982 48.8369C32.9796 48.5502 32.9188 48.2428 32.9193 47.9325C32.9193 46.6288 33.9758 45.5723 35.2812 45.5723C36.5866 45.5723 37.6432 46.6271 37.6432 47.9325C37.6432 49.2396 36.5866 50.2945 35.2812 50.2945Z" fill="#C2C2C2"/>
</svg>
