<svg width="102" height="37" viewBox="0 0 102 37" fill="none" xmlns="http://www.w3.org/2000/svg">
<path fill-rule="evenodd" clip-rule="evenodd" d="M26.6726 9.41113C26.6663 13.3513 26.6663 16.184 26.6663 20.9721C26.4402 25.6786 26.4925 29.4261 24.7695 31.6768C24.4282 32.1206 23.708 32.7697 23.103 33.224C22.5963 33.605 21.6312 34.3797 21.0826 34.4131C20.5278 34.4466 19.1083 33.6448 18.4656 33.3433C17.6198 32.9455 16.8389 32.4179 15.9658 32.1541C18.0029 30.8917 19.9353 29.9454 20.7246 27.3953C21.4113 25.1761 21.3192 21.9624 21.3192 18.8324C21.3192 15.738 21.3339 12.1412 21.3339 9.41113H26.6726Z" fill="#C2C2C2"/>
<path fill-rule="evenodd" clip-rule="evenodd" d="M6.21356 18.1172C6.19471 21.4397 8.62959 23.4203 12.5154 22.5201V13.7164C8.58144 12.5188 6.22821 14.9432 6.21356 18.1172ZM12.6347 0.989258H17.986V26.3263C12.8566 27.1637 7.94079 27.6976 4.4256 25.7317C-0.100804 23.1984 -0.465094 15.1589 3.11709 11.5767C4.93435 9.75943 8.58981 8.48232 12.5154 9.31559V1.34727C12.5049 1.17768 12.4965 1.0081 12.6347 0.989258ZM26.6724 6.57922H21.319V0.989258H26.6724V6.57922ZM90.9047 22.7566C96.7396 25.024 97.3865 12.3116 91.4993 13.4798C87.8438 14.2042 87.9611 21.6135 90.9047 22.7566ZM91.1434 9.07692C95.5986 8.60166 98.9609 10.5676 100.303 13.5991C102.591 18.7683 100.177 24.6995 96.4947 26.4435C94.5895 27.3479 92.5901 27.4338 90.7854 27.2768C85.208 26.791 81.6907 21.1069 83.6482 14.7883C83.956 13.798 84.2993 13.193 84.4815 12.8831C85.6958 10.823 87.7412 9.44121 91.1434 9.07692ZM34.0461 20.7342C32.566 23.2235 36.2863 23.8202 38.6856 23.1146V19.4278C36.8432 19.6832 34.7433 19.5639 34.0461 20.7342ZM43.4444 26.5628C39.0227 26.8183 32.3022 28.3236 29.884 25.3737C28.4625 23.6401 28.6153 20.3343 29.884 18.7138C31.5233 16.6181 35.1013 16.1596 38.3297 15.8581C38.6228 15.1359 38.4239 13.9613 38.091 13.4798C35.139 12.7261 32.2038 13.8922 30.1206 14.7883V10.6241C33.2673 9.1795 40.551 7.65744 42.7305 10.98C43.8757 12.7261 43.4423 15.7702 43.4423 18.4752L43.4444 26.5628ZM62.2388 26.8036H56.8855V19.903C56.8855 17.6314 57.2518 14.7506 56.0522 13.8357C55.1122 13.1197 52.8825 13.4798 51.5321 13.8357V26.8015H46.1787V10.2682C51.6514 8.84452 61.5291 7.32246 62.2367 14.1937C62.5885 17.5812 61.9792 22.6624 62.2367 26.8015L62.2388 26.8036ZM70.2093 21.0922C71.1095 22.5494 73.5465 23.0958 75.5606 22.162C75.4494 19.3092 75.4096 16.454 75.4412 13.5991C70.8143 12.3765 68.0612 17.6147 70.2093 21.0922ZM83.6503 9.79084C83.173 11.2187 82.4758 12.4246 81.8644 13.7164C81.3138 13.842 80.8344 13.4986 80.5559 13.7164C80.4345 19.5157 81.7912 27.3752 79.4861 31.5603C78.098 34.0789 75.5417 35.6952 71.635 35.9611C69.2055 36.1533 66.7642 35.7874 64.4979 34.8913V29.8938C66.939 31.3195 73.1089 32.4815 74.8466 29.5379C75.3575 28.6711 75.3261 27.775 75.5585 26.4456C74.4426 26.5042 73.356 27.0213 71.9909 27.0402C66.3821 27.1135 62.9109 22.6478 64.2592 16.4527C64.7826 14.0576 66.1853 12.1273 68.0675 10.9821C71.9721 8.59957 77.9808 8.78171 83.6503 9.79084Z" fill="#C2C2C2"/>
</svg>
