<svg width="54" height="53" viewBox="0 0 54 53" fill="none" xmlns="http://www.w3.org/2000/svg">
<g clip-path="url(#clip0_2720_1824)">
<path d="M24.2211 52.9264C19.2675 52.5693 14.3716 51.3225 11.3689 49.6532C9.65859 48.7025 8.35557 47.534 7.84426 46.4926L7.54004 45.873V26.4377V7.00238L7.78076 6.51359C8.85653 4.32951 12.2898 2.36054 17.0824 1.17914C18.7093 0.778081 21.0579 0.37869 22.9739 0.177291C24.9305 -0.0284164 30.1164 0.00288052 32.068 0.232478C37.2551 0.841889 41.669 2.20621 44.3891 4.04095C45.4381 4.74849 46.5145 5.88062 46.8791 6.65991L47.1918 7.32805L47.165 26.7046L47.1383 46.0812L46.8873 46.5911C46.7493 46.8715 46.3323 47.4232 45.9608 47.817C43.699 50.2146 38.8474 51.9883 32.4838 52.744C31.1867 52.8981 25.5519 53.0223 24.2211 52.9264ZM33.3498 36.2729C33.3308 36.2233 32.5903 35.5636 31.7043 34.8069C30.8182 34.0502 30.0551 33.3955 30.0085 33.3521C29.9618 33.3086 30.1255 33.1547 30.3723 33.0101C30.619 32.8655 31.0917 32.4631 31.4227 32.116C32.3908 31.1009 32.8475 29.847 32.8475 28.2045C32.8475 26.5876 32.3549 25.283 31.3683 24.2871C30.3739 23.2833 29.2321 22.852 27.5694 22.852C25.0065 22.852 23.0382 24.3474 22.41 26.7719C22.1939 27.6059 22.195 29.291 22.4123 30.0304C22.9788 31.9593 24.5218 33.3601 26.4422 33.6891C27.0921 33.8004 27.1801 33.8484 27.6231 34.3328C27.8864 34.6206 28.4268 35.1952 28.8239 35.6097L29.5459 36.3632H31.4652C32.5208 36.3632 33.3689 36.3226 33.3498 36.2729ZM26.7677 30.8989C26.3056 30.658 26.131 30.471 25.8675 29.9354C25.6639 29.5217 25.6292 29.2863 25.6269 28.3085C25.6246 27.3149 25.6562 27.1002 25.8687 26.6687C26.2163 25.9627 26.6954 25.6285 27.4365 25.5749C28.4681 25.5 29.0636 26.0063 29.3757 27.223C29.7583 28.7148 29.3375 30.3007 28.4195 30.8271C27.9379 31.1032 27.2195 31.1345 26.7677 30.8989ZM18.2603 33.6679C20.2727 33.2863 21.415 32.116 21.415 30.4361C21.415 28.9457 20.6775 28.0773 18.6392 27.1674C17.4724 26.6465 17.0498 26.3195 17.0498 25.9375C17.0498 25.6209 17.4509 25.274 17.9178 25.1868C18.3737 25.1017 19.5828 25.3117 20.2968 25.6001L20.8953 25.8419V24.5171V23.1922L20.2457 23.0481C19.8443 22.959 19.0007 22.9056 18.0372 22.9083C16.6724 22.9083 16.4051 22.9416 15.8915 23.1455C14.3913 23.7411 13.6794 24.7557 13.6908 26.2818C13.7014 27.7105 14.4551 28.6017 16.3309 29.4034C17.4377 29.8764 17.8813 30.2367 17.8813 30.6623C17.8813 31.5669 16.3741 31.6782 14.7784 30.8915C14.3414 30.6761 13.9487 30.4822 13.9059 30.4608C13.863 30.4393 13.8279 31.0582 13.8279 31.836C13.8279 33.244 13.8294 33.2508 14.0843 33.3479C15.0443 33.7128 17.166 33.8754 18.2603 33.6679ZM41.266 32.3618V31.1666H39.4472H37.6284V27.0612V22.9559H36.0174H34.4065V28.2565V33.557H37.8362H41.266V32.3618ZM30.0413 11.4168C33.2426 11.1948 35.6422 10.7756 37.7539 10.0695C39.8576 9.36614 41.1003 8.51505 41.3782 7.58728C41.4853 7.22977 41.4776 7.09416 41.328 6.70217C40.6569 4.94485 36.9077 3.59469 31.1787 3.04727C28.7281 2.81306 24.2714 2.88898 21.9348 3.20461C18.3694 3.68634 15.476 4.58112 14.1895 5.59983C11.5869 7.66069 14.3391 9.92735 20.7394 10.9942C23.5146 11.4568 27.11 11.6202 30.0413 11.4168Z" fill="#C2C2C2"/>
</g>
<defs>
<clipPath id="clip0_2720_1824">
<rect width="52.92" height="52.92" fill="white" transform="translate(0.901367 0.0400391)"/>
</clipPath>
</defs>
</svg>
