<?xml version="1.0" encoding="UTF-8"?>
<svg id="Ebene_1" xmlns="http://www.w3.org/2000/svg" version="1.1" viewBox="0 0 56 57">
  <!-- Generator: Adobe Illustrator 29.7.1, SVG Export Plug-In . SVG Version: 2.1.1 Build 8)  -->
  <defs>
    <style>
      .st0 {
        fill: #c2c2c2;
      }
    </style>
  </defs>
  <path class="st0" d="M27.9,23.9c-2.7,0-4.8,2.2-4.8,4.8s2.2,4.8,4.8,4.8,4.8-2.2,4.8-4.8-2.2-4.8-4.8-4.8Z"/>
  <path class="st0" d="M55,28.8c0-3.8-4.5-7.1-11.4-9.1,1.7-7,1.1-12.5-2.2-14.4-2.7-1.6-6.7-.5-11.2,3.2-.8.6-1.6,1.4-2.4,2.1-.8-.8-1.6-1.5-2.4-2.1-4.5-3.6-8.5-4.8-11.2-3.2-3.3,1.9-3.9,7.4-2.2,14.4C5.2,21.7.8,25,.8,28.8s4.5,7.1,11.4,9.1c-1.7,7-1.1,12.5,2.2,14.4.8.5,1.7.7,2.7.7,3.1,0,7-2.2,10.9-6,3.9,3.8,7.8,6,10.9,6s1.9-.2,2.7-.7c3.3-1.9,3.9-7.4,2.2-14.4,6.9-2,11.4-5.3,11.4-9.1ZM31.8,10.3c3.6-2.9,6.7-4,8.5-3,2.1,1.2,2.6,5.7,1.1,11.8-2.2-.5-4.6-.9-7.2-1.1-1.5-2.1-3-4-4.6-5.7.7-.7,1.5-1.4,2.2-2ZM35.5,33.1c-.9,1.5-1.7,2.9-2.6,4.2-1.6.1-3.2.2-4.9.2s-3.4,0-4.9-.2c-.9-1.3-1.8-2.7-2.6-4.2-.9-1.5-1.6-2.9-2.3-4.4.7-1.4,1.4-2.9,2.3-4.4.8-1.5,1.7-2.8,2.6-4.2,1.6-.1,3.2-.2,4.9-.2s3.4,0,4.9.2c.9,1.3,1.8,2.7,2.6,4.2.9,1.5,1.6,2.9,2.3,4.4-.7,1.4-1.4,2.9-2.3,4.4ZM39,31.5c.7,1.6,1.2,3.2,1.7,4.6-1.5.3-3.1.6-4.9.8.6-.9,1.1-1.8,1.7-2.7.5-.9,1-1.9,1.5-2.8ZM27.9,43.6c-1-1.1-2.1-2.4-3.2-3.8,1,0,2.1,0,3.2,0s2.1,0,3.2,0c-1.1,1.4-2.1,2.6-3.2,3.8ZM20,37c-1.7-.2-3.4-.5-4.9-.8.5-1.5,1-3,1.7-4.6.5.9,1,1.8,1.5,2.8.5.9,1.1,1.8,1.7,2.7ZM16.8,26c-.7-1.6-1.2-3.2-1.7-4.6,1.5-.3,3.1-.6,4.9-.8-.6.9-1.1,1.8-1.7,2.7-.5.9-1,1.9-1.5,2.8ZM27.9,14c1.1,1.2,2.1,2.4,3.2,3.8-1,0-2.1,0-3.2,0s-2.1,0-3.2,0c1-1.4,2.1-2.6,3.2-3.8ZM37.5,23.2c-.5-.9-1.1-1.8-1.7-2.7,1.7.2,3.4.5,4.9.8-.5,1.5-1,3-1.7,4.6-.5-.9-1-1.8-1.5-2.8ZM15.5,7.3c1.8-1,4.9,0,8.5,3,.7.6,1.5,1.3,2.2,2-1.6,1.7-3.1,3.6-4.6,5.7-2.6.2-5,.6-7.2,1.1-1.5-6.1-1.1-10.5,1.1-11.8ZM3.1,28.8c0-2.5,3.6-5.1,9.7-6.8.7,2.2,1.6,4.5,2.6,6.8-1.1,2.4-2,4.6-2.6,6.8-6-1.7-9.7-4.4-9.7-6.8ZM15.5,50.2c-2.1-1.2-2.6-5.7-1.1-11.8,2.2.5,4.6.9,7.2,1.1,1.5,2.1,3,4,4.6,5.7-4.5,4.4-8.6,6.2-10.7,5ZM40.3,50.2c-2.1,1.2-6.2-.6-10.7-5,1.5-1.7,3.1-3.6,4.6-5.7,2.6-.2,5-.6,7.2-1.1,1.5,6.1,1.1,10.5-1.1,11.8ZM43,35.6c-.7-2.2-1.6-4.5-2.6-6.8,1.1-2.4,2-4.6,2.6-6.8,6,1.7,9.7,4.4,9.7,6.8s-3.6,5.1-9.7,6.8Z"/>
</svg>