<svg width="42" height="61" viewBox="0 0 42 61" fill="none" xmlns="http://www.w3.org/2000/svg">
<path d="M10.9872 61.0002C16.5992 61.0002 21.154 56.4454 21.154 50.8333V40.6665H10.9872C5.37506 40.6665 0.820312 45.2212 0.820312 50.8333C0.820312 56.4454 5.37506 61.0002 10.9872 61.0002Z" fill="#C2C2C2"/>
<path d="M0.820312 30.5008C0.820312 24.8887 5.37506 20.334 10.9872 20.334H21.154V40.6677H10.9872C5.37506 40.6677 0.820312 36.1129 0.820312 30.5008Z" fill="#C2C2C2"/>
<path d="M0.820312 10.1668C0.820312 4.55474 5.37506 0 10.9872 0H21.154V20.3337H10.9872C5.37506 20.3337 0.820312 15.7789 0.820312 10.1668Z" fill="#C2C2C2"/>
<path d="M21.1533 0H31.3202C36.9323 0 41.487 4.55474 41.487 10.1668C41.487 15.7789 36.9323 20.3337 31.3202 20.3337H21.1533V0Z" fill="#C2C2C2"/>
<path d="M41.487 30.5008C41.487 36.1129 36.9323 40.6677 31.3202 40.6677C25.7081 40.6677 21.1533 36.1129 21.1533 30.5008C21.1533 24.8887 25.7081 20.334 31.3202 20.334C36.9323 20.334 41.487 24.8887 41.487 30.5008Z" fill="#C2C2C2"/>
</svg>
