<?xml version="1.0" encoding="UTF-8"?>
<svg id="Ebene_2" xmlns="http://www.w3.org/2000/svg" version="1.1" viewBox="0 0 773 274.1">
  <!-- Generator: Adobe Illustrator 29.7.1, SVG Export Plug-In . SVG Version: 2.1.1 Build 8)  -->
  <path d="M314.5,159.1c-25.8,0-46.7,20.9-46.7,46.7s20.9,46.7,46.7,46.7,46.7-20.9,46.7-46.7-20.9-46.7-46.7-46.7ZM314.7,216.2c-5.6,0-10.2-4.6-10.2-10.2s4.5-10.2,10.2-10.2,10.2,4.6,10.2,10.2-4.5,10.2-10.2,10.2ZM347.5,202.1c-.5.1-1,.2-1.4.2-2.2,0-4.1-1.4-4.8-3.6-.8-2.7-4.1-11.8-13.7-16.9-10.9-5.8-21.7-2.1-23.8-1.2-2.6,1-5.5-.2-6.5-2.8s.2-5.5,2.8-6.5c3.9-1.6,17.7-6,32.1,1.7,12.6,6.7,17.2,18.2,18.6,22.8.8,2.6-.7,5.4-3.4,6.2h0Z"/>
  <path d="M443.4,159.1c-25.8,0-46.7,20.9-46.7,46.7s20.9,46.7,46.7,46.7,46.7-20.9,46.7-46.7-20.9-46.7-46.7-46.7ZM443.6,216.2c-5.6,0-10.2-4.6-10.2-10.2s4.5-10.2,10.2-10.2,10.2,4.6,10.2,10.2-4.5,10.2-10.2,10.2ZM476.4,202.1c-.5.1-1,.2-1.4.2-2.2,0-4.1-1.4-4.8-3.6-.8-2.7-4.1-11.8-13.7-16.9-10.9-5.8-21.7-2.1-23.8-1.2-2.6,1-5.5-.2-6.5-2.8s.2-5.5,2.8-6.5c3.9-1.6,17.7-6,32.1,1.7,12.6,6.7,17.2,18.2,18.6,22.8.8,2.6-.7,5.4-3.4,6.2h0Z"/>
  <path d="M572.3,159.1c-25.8,0-46.7,20.9-46.7,46.7s20.9,46.7,46.7,46.7,46.7-20.9,46.7-46.7-20.9-46.7-46.7-46.7ZM572.5,216.2c-5.6,0-10.2-4.6-10.2-10.2s4.5-10.2,10.2-10.2,10.2,4.6,10.2,10.2-4.5,10.2-10.2,10.2ZM605.3,202.1c-.5.1-1,.2-1.4.2-2.2,0-4.1-1.4-4.8-3.6-.8-2.7-4.1-11.8-13.7-16.9-10.9-5.8-21.7-2.1-23.8-1.2-2.6,1-5.5-.2-6.5-2.8s.2-5.5,2.8-6.5c3.9-1.6,17.7-6,32.2,1.7,12.6,6.7,17.2,18.2,18.6,22.8.8,2.6-.7,5.4-3.4,6.2h0Z"/>
  <g>
    <path d="M.3,156.9c-.2-.8-.9-4.2,1.1-7.7,1.8-3.1,4.5-4.3,5.3-4.7,6.7-2.2,13.3-4.4,20-6.6.9-.3,3.9-1.4,7.4-.2,2.8.9,4.4,2.8,5.1,3.6,11.3,14.4,22.7,28.8,34,43.1.8-.2,1.5-.5,2.3-.8.3-18.1.5-36.1.8-54.1,0-.9-.2-3.9,1.8-6.8,1.8-2.6,4.2-3.6,5.1-3.9,6.4-2.1,12.8-4.2,19.2-6.4.7-.3,5.3-2,10,.6,3.9,2.1,5.2,5.8,5.5,6.6,12.2,36.4,24.4,72.7,36.5,109.1.3,1,.8,3.6-.3,6.5-1.8,4.6-6.2,6-6.9,6.2-2,.6-3.9,1.3-5.9,1.9-.6.2-4.8,1.3-8.8-1.3-3-2-4-5-4.2-5.8-9-27-18.1-53.9-27.1-80.9-.3-.5-.7-.8-1.2-.8s-1.4.7-1.4,1.7c-.2,20.2-.4,40.3-.6,60.5,0,6.2-4.4,11.4-10,12.6-4.6,1-9.5-.9-12.6-4.8-12.5-16.1-25-32.2-37.4-48.4-.6-.7-1.5-.8-2.1-.4-.6.4-.5,1.2-.5,1.3,9.2,27.5,18.4,55,27.6,82.5.2.6,1.1,3.7-.5,7.1-1.7,3.4-4.8,4.6-5.4,4.8-2.2.8-4.5,1.6-6.7,2.4-.8.2-4,1.1-7.6-.5-3.7-1.6-5.2-4.8-5.6-5.5C25,230.7,12.6,193.8.3,156.9Z"/>
    <path d="M229,213.5h0v-87.7c0-6.7-5.5-12.2-12.2-12.2h-3.6c-6.7,0-12.2,5.5-12.2,12.2v49.3l-30.6-37.1c-4.3-5.2-12-5.9-17.2-1.6l-3.2,2.6c-5.2,4.3-5.9,12-1.6,17.2l51.5,62.4s0,.1.1.2c.2,6.7-.6,12.6-1.7,17.5,0,.6-.2,2-1.2,3.4s-2.2,2-2.8,2.3l-6.2,2.2c-.8.3-2,1-3,2.1-2.4,2.8-2,6.3-1.9,7,.1,1.1.3,2.2.4,3.2.2.9,1,3.4,3.4,5.5,1.9,1.6,3.9,2.1,4.9,2.3,3.7.4,9.6.6,15.8-2.2.2,0,1.9-.9,3.6-1.9,14.2-9.1,17.7-35.2,17.8-45.1v-1.5h-.1Z"/>
  </g>
  <g>
    <rect x="358.4" y=".5" width="32.6" height="136.3" rx="13.3" ry="13.3"/>
    <path d="M480.2,69.1l31.3-47.3c4.1-6.1,2.4-14.4-3.7-18.4l-1.9-1.3c-6.1-4.1-14.4-2.4-18.4,3.7l-24.6,37.1-24.2-36.6c-4.1-6.1-12.3-7.8-18.4-3.7l-1.9,1.3c-6.1,4.1-7.8,12.3-3.7,18.4l31,46.9-31.3,47.4c-4.1,6.1-2.4,14.4,3.7,18.4l1.9,1.3c6.1,4.1,14.4,2.4,18.4-3.7l24.6-37.1,24.9,37.6c4.1,6.1,12.3,7.8,18.4,3.7l1.9-1.3c6.1-4.1,7.8-12.3,3.7-18.4l-31.7-47.8v-.2Z"/>
    <path d="M624,117l-31.8-48,31.3-47.3c4.1-6.1,2.4-14.4-3.7-18.4l-1.9-1.3c-6.1-4.1-14.4-2.4-18.4,3.7l-24.5,37.1-24.2-36.5c-4.1-6.1-12.3-7.8-18.4-3.7l-1.9,1.3c-6.1,4.1-7.8,12.3-3.7,18.4l30.9,46.7-31.4,47.4c-4.1,6.1-2.4,14.4,3.7,18.4l1.9,1.3c6.1,4.1,14.4,2.4,18.4-3.7l24.6-37.2,25,37.7c4.1,6.1,12.3,7.8,18.4,3.7l1.9-1.3c6.1-4.1,7.8-12.3,3.7-18.4h.1Z"/>
    <path d="M313.1.3h-20.3c-.9,0-3.6.2-6.1,2.1-2.8,2.1-3.7,4.9-3.9,5.8-5.9,17-11.9,34.1-17.9,51.1h-2.4c-6.2-17.2-12.4-34.5-18.6-51.7-.4-1-1.3-3.2-3.7-5-3-2.3-6.2-2.3-7.1-2.3h-21.1c-1,0-4,.3-6.6,2.7-3,2.7-3.5,6.2-3.5,7h0c-.2,35.5-.5,78.8-.8,115.7,0,6.2,4.9,11.2,11.1,11.2h5.7c6.1,0,11.1-5,11.1-11.1V40.3s.2-.8.9-1,1.6.2,1.9,1c6.7,19.2,13.4,38.4,20.1,57.7,1.7,4.6,5.7,8,10.4,8.5,5.6.7,11.3-2.9,13.4-8.7l19.8-57.2c.3-1,1.2-1.4,1.9-1.2.5.2.8.7.9,1.2v85.3c0,.9,0,4,2.2,6.9,2.9,3.7,7.3,4,7.9,4h6.2c.7,0,5.4,0,8.5-3.7,2-2.4,2.4-5.1,2.4-6.1V12c0-.9-.1-4.8-3.1-8-3.7-3.9-8.6-3.7-9.3-3.7Z"/>
  </g>
</svg>