<?xml version="1.0" encoding="UTF-8"?>
<svg id="Logo" xmlns="http://www.w3.org/2000/svg" viewBox="0 0 2952.6 1951.9">
  <g id="Brasil_Massage" data-name="Brasil Massage">
    <path d="M611.48,1814.19h61.19c19.61,0,34.71,14.32,34.71,33.93,0,13.33-7.45,24.71-17.26,29.42,15.1,3.92,25.49,18.24,25.49,35.5,0,20.98-15.88,36.48-37.26,36.48h-66.87v-135.31ZM628.94,1830.46v41.18h39.61c10.98,0,20.4-8.82,20.4-20.59s-8.83-20.59-20.4-20.59h-39.61ZM628.94,1887.14v46.08h45.3c13.14,0,22.94-10,22.94-23.14s-9.81-22.94-22.94-22.94h-45.3Z"/>
    <path d="M746.98,1814.19h57.85c24.12,0,42.36,17.65,42.36,41.18,0,21.77-15.88,38.24-37.65,40.2l18.24,26.08c5.29,7.45,11.77,10.98,19.22,10.98h4.51v16.87h-6.47c-14.71,0-26.08-6.28-33.93-19.41l-22.75-34.32h-23.34v53.73h-18.04v-135.31ZM765.03,1831.05v49.03h39.61c13.73,0,24.12-10.39,24.12-24.51s-10.39-24.51-24.12-24.51h-39.61Z"/>
    <path d="M923.96,1814.19h21.38l55.11,135.31h-19.81l-13.14-32.75h-66.28l-13.14,32.75h-19.22l55.11-135.31ZM960.83,1900.08l-26.47-66.28-26.47,66.28h52.95Z"/>
    <path d="M1018.64,1911.26h18.24c0,13.92,13.34,24.51,30.4,24.51,16.08,0,29.02-9.02,29.02-22.36,0-31.38-75.3-16.86-75.3-62.95,0-23.53,20.4-38.63,45.5-38.63s45.69,16.67,45.69,38.83h-18.24c0-12.94-11.96-22.75-27.85-22.75-14.51,0-26.67,8.24-26.67,21.18,0,31.18,75.3,15.49,75.3,62.36,0,24.51-21.18,40.4-47.65,40.4s-48.44-17.65-48.44-40.59Z"/>
    <path d="M1138.84,1814.19h18.04v135.31h-18.04v-135.31Z"/>
    <path d="M1188.65,1814.19h18.04v118.45h63.73v16.87h-81.78v-135.31Z"/>
    <path d="M1382.02,1814.19h22.75l49.42,81.78,49.42-81.78h22.16v135.31h-17.85v-109.62l-48.83,81.19h-10.2l-48.83-81.19v109.62h-18.04v-135.31Z"/>
    <path d="M1606.96,1814.19h21.38l55.11,135.31h-19.81l-13.14-32.75h-66.28l-13.14,32.75h-19.22l55.11-135.31ZM1643.83,1900.08l-26.47-66.28-26.47,66.28h52.95Z"/>
    <path d="M1701.64,1911.26h18.24c0,13.92,13.34,24.51,30.4,24.51,16.08,0,29.02-9.02,29.02-22.36,0-31.38-75.3-16.86-75.3-62.95,0-23.53,20.39-38.63,45.5-38.63s45.69,16.67,45.69,38.83h-18.24c0-12.94-11.96-22.75-27.85-22.75-14.51,0-26.67,8.24-26.67,21.18,0,31.18,75.3,15.49,75.3,62.36,0,24.51-21.18,40.4-47.65,40.4s-48.44-17.65-48.44-40.59Z"/>
    <path d="M1824.04,1911.26h18.24c0,13.92,13.33,24.51,30.4,24.51,16.08,0,29.02-9.02,29.02-22.36,0-31.38-75.3-16.86-75.3-62.95,0-23.53,20.4-38.63,45.5-38.63s45.69,16.67,45.69,38.83h-18.24c0-12.94-11.96-22.75-27.85-22.75-14.51,0-26.67,8.24-26.67,21.18,0,31.18,75.3,15.49,75.3,62.36,0,24.51-21.18,40.4-47.65,40.4s-48.44-17.65-48.44-40.59Z"/>
    <path d="M1993.56,1814.19h21.38l55.11,135.31h-19.81l-13.14-32.75h-66.28l-13.14,32.75h-19.22l55.11-135.31ZM2030.43,1900.08l-26.47-66.28-26.47,66.28h52.95Z"/>
    <path d="M2084.12,1881.84c0-39.81,30.59-70.01,70.79-70.01,30.79,0,56.09,17.65,65.11,42.75h-20c-8.63-15.49-25.1-25.49-45.1-25.49-29.81,0-52.36,22.75-52.36,52.75s22.55,52.75,52.36,52.75c26.08,0,45.3-17.06,49.42-40.79h-44.52v-16.28h63.54v71.97h-15.3v-29.22c-9.61,20.2-28.44,31.57-53.14,31.57-40.2,0-70.79-30.2-70.79-70.01Z"/>
    <path d="M2250.61,1814.19h86.68v16.87h-68.64v41.97h62.17v16.87h-62.17v42.75h69.62v16.87h-87.66v-135.31Z"/>
  </g>
  <g id="essencial">
    <path d="M339.8,1561.2c-3.2,6.2-62.1,115.2-167.2,117.9-42.6,1.1-74.2-15.9-83.7-21.2C32.3,1625.8,0,1561.1,0,1489.8s21.1-115.3,57.2-154c13.6-14.6,60.4-64.4,131.2-64.3,64.1.2,128.5,41.4,138.7,86,1.3,5.7,5.9,25.8-4.7,41.9-8.5,12.9-22.8,17.6-32.2,20.1-62,16.7-120,5.4-192.6,22-39.4,9-45.8,17.6-47.9,20.7-25,38.1,21.5,140.5,99.7,166.5,64,21.3,143.3-10.4,190.2-80.5,0,4.3.1,8.6.2,12.9h0v.1ZM187.5,1292.3c-26.6-2.2-68.9,2.9-102.9,35.3-44.3,42.2-40.5,98.6-39.9,105.8,58.2-16.7,103-20.1,135.2-19.5,18,.3,49.5,2.2,69.6-18,2-2,11.8-12.2,14.6-28.4,5.7-33.3-24.4-57.9-26.3-59.4-17-13.4-35.5-14.4-50.3-15.6h0v-.2h0Z"/>
    <path d="M1377.1,1561.2c-3.2,6.2-62.1,115.2-167.2,117.9-42.6,1.1-74.2-15.9-83.7-21.2-56.6-32.1-88.9-96.8-88.9-168.1s21.1-115.3,57.2-154c13.6-14.6,60.4-64.4,131.2-64.3,64.1.2,128.5,41.4,138.7,86,1.3,5.7,5.9,25.8-4.7,41.9-8.5,12.9-22.8,17.6-32.2,20.1-62,16.7-120,5.4-192.6,22-39.4,9-45.8,17.6-47.9,20.7-25,38.1,21.5,140.5,99.7,166.5,64,21.3,143.3-10.4,190.2-80.5,0,4.3,0,8.6.2,12.9h0v.1ZM1224.9,1292.3c-26.6-2.2-68.9,2.9-102.9,35.3-44.3,42.2-40.5,98.6-39.9,105.8,58.2-16.7,103-20.1,135.2-19.5,18,.3,49.5,2.2,69.6-18,2-2,11.8-12.2,14.6-28.4,5.7-33.3-24.4-57.9-26.3-59.4-17-13.4-35.6-14.4-50.3-15.6h0v-.2h0Z"/>
    <path d="M646.2,1416.2h-7.3c.7-5.7,6.5-62.6-36.1-100.4-4.8-4.3-33.9-29.2-75.9-26.9-7.2.4-54.4,3.8-72.3,37.7-.6,1.1-9,17.6-6.3,36.3,9.7,68.5,152.1,60.2,195.1,150.8,15.8,33.4,16.6,76.9-1.7,110.4-21,38.2-60.3,51.4-76,56.6-69.9,23.4-133.3-10.2-147.4-18.2-.4-44.3-.8-88.6-1.1-132.9h6.4c-5,51.4,19.2,99.3,60.2,119.9,49.6,24.9,116.8,6.2,135.5-30,1.9-3.7,8.2-17.1,5.1-32.7-5.7-28.1-37.7-42.5-59.7-53.4-68.4-34-121.4-60.4-141.7-101.2-21.8-43.7-9.2-110.2,31.7-144.8,36.7-31,84.3-26.2,100-24.6,46,4.6,77.1,28.5,89,38.7.9,38.2,1.8,76.4,2.7,114.6h-.2v.1Z"/>
    <path d="M960.8,1416.2h-7.3c.7-5.7,6.5-62.6-36.1-100.4-4.8-4.3-33.9-29.2-75.9-26.9-7.2.4-54.4,3.8-72.3,37.7-.6,1.1-9,17.6-6.3,36.3,9.7,68.5,152.1,60.2,195.1,150.8,15.8,33.4,16.6,76.9-1.7,110.4-21,38.2-60.3,51.4-76,56.6-69.9,23.4-133.3-10.2-147.4-18.2l-1.1-132.9h6.4c-5,51.4,19.2,99.3,60.2,119.9,49.6,24.9,116.8,6.2,135.5-30,1.9-3.7,8.2-17.1,5.1-32.7-5.7-28.1-37.7-42.5-59.7-53.4-68.4-34-121.4-60.4-141.7-101.2-21.8-43.7-9.2-110.2,31.7-144.8,36.7-31,84.3-26.2,100-24.6,46,4.6,77.1,28.5,88.9,38.7.9,38.2,1.8,76.4,2.7,114.6h-.1v.1Z"/>
    <path d="M1730.3,1668.5c66.7-147.9,24.3-291-60-333.2-61.5-30.8-133.7-1.9-156.7,8.5v324.7c-23,0-28.2.2-51.2.2.6-117.5,1.2-235,1.9-352.5,1.9-.6,3.9-1.3,5.8-2.1,23.4-9.6,36.4-30.6,43.2-45.2v56.2c42.3-51.6,111.7-72.7,175.1-53.2,61.6,18.9,85.5,72.2,93.3,136.6-.4,86.5-.8,173-1.1,259.5-23.8,0-26.4.6-50.2.6h-.2l.1-.1Z"/>
    <path d="M2365.9,1668.5c-23,0-28.2.2-51.2.2.6-117.5,1.2-235,1.9-352.5,1.9-.6,3.9-1.3,5.8-2.1,23.4-9.6,36.4-30.6,43.2-45.2v56.2c.1,114.5.2,229,.4,343.4h-.1Z"/>
    <path d="M2222.5,1596.1c-13.9,15.4-79.1,84.3-174.8,83-15.8-.2-52.6-1.4-90.5-23.7-56-33.1-87.3-96.3-87.3-161.1s9.6-65.3,15.2-80c6.7-17.6,24.7-63.3,72.1-99.4,13.6-10.3,64.1-47.6,135.4-43.3,37.4,2.3,66,15.1,81.9,23.8l.4,79c-42.3-65.3-114.9-92.8-170.6-72.2-66.1,24.5-79.1,105.8-81.8,122.3-13.9,86.3,40.1,164,89.4,192.1,25.9,14.8,52.1,17.7,52.1,17.7,30.4,3.4,53.9-5.3,65-9.6,58.9-22.7,86.6-77.8,93.6-93v64.4h-.1Z"/>
    <path d="M2321.9,1244.2c-2.1-5.4-18.1-47.8,5.9-88.1,15.7-26.4,39.8-37.2,48.4-40.6,3.5,8.1,13.6,33.8,5,64.5-12.6,44.9-54.1,62.2-59.3,64.2h0Z"/>
    <path d="M2721.3,1668.2v-88.5c-6.1,12.3-37.7,72.2-106.4,91.3-16.3,4.5-66.7,18.6-106.7-10.4-44.4-32.2-52.2-100.4-30.9-147.3,20.9-45.9,69.1-75.4,122.7-75.4,29.1.2,92.1.3,121.2.5.5-7.6.8-18.2-.8-30.6-.6-4.6-5.6-43.1-25.7-69.8-29.6-39.4-100-64.6-152.9-33-42.6,25.4-51.5,74.4-53,83.5h-4.9c-.4-16.1-.8-32.2-1.2-48.3,10.8-15.2,43.6-56.7,100.5-69.9,62.1-14.3,140.4,7.9,170.7,64.1,10.6,19.7,12.9,39.2,13.2,52.2,1.4,62.1-.6,89.6,0,180.8.3,45.6,3,74.9,24.1,91,8.6,6.6,17.9,9.1,24.6,10.2h-94.7l.2-.4h0ZM2721,1452.5c-53.5-5.3-93.7,5.2-116.2,13.1-26.8,9.4-51.8,18.5-68.9,44-4.4,6.5-22.7,33.8-14,66.8,6.6,25.3,25.2,39.2,31.3,43.4,29.9,20.3,64.3,12.5,78.8,9.3,52.4-11.8,80.9-53.7,88.4-65.7.2-37,.4-73.9.6-110.9h0Z"/>
    <path d="M2894.9,1668.7v-566.7c4.6-2.5-3.2-7.7,1.6-10.8,26-16.9,44-37.7,56.1-55.6v632.9c-19.2,0-38.5,0-57.7.2h0Z"/>
  </g>
  <g id="LogoBild">
    <path d="M704,962.8h0c-5,0-9-4.1-9-9v-.2c.2-53.5.4-108.8.7-163.2,0-104.7,20.3-206.7,60.6-303.2,38.7-92.9,94.2-176.7,164.8-249.2,70.4-72.3,152.2-129.6,243.2-170.4C1258.2,25.5,1357.8,3.1,1460.1,1c105.2-2.2,208.2,17.3,306.1,57.7,94.6,39.1,180,95.8,253.7,168.5,74.5,73.5,133,159.3,173.8,254.9,42.5,99.5,63.6,205,62.9,313.6,0,26.2-.1,52.4-.2,78.6,0,26.5-.2,52.9-.2,79.4,0,2.5-1.1,4.9-2.9,6.6-1.8,1.7-4.3,2.6-6.8,2.4l-518.1-40.3c-22.5,9.7-56,18.4-91.2,7.8-20.5-6.2-34.5-16.8-45.5-26.3-47.8-41.1-91.4-104.7-120.4-152.4-9.6.2-18.8-1-27.6-3.7-5.4-1.6-16-5.4-26.5-12.6-14.5-9.8-24.1-22.4-28.7-37.4-4.2-14-7.8-43.3,9.1-54.3,11.6-7.6,23.9-1.6,38.1,5.4,12.5,6.1,28,13.7,49.9,17.8,12.5,2.3,19.3,2.1,27.3,1.8,5.6-.2,11.9-.4,20.4.3,22,1.8,58.6,18.2,108.8,48.9,4.2,2.6,5.6,8.1,3,12.4-2.6,4.2-8.1,5.6-12.4,3-59.4-36.3-87.6-45.2-100.8-46.3-7.5-.6-13-.4-18.3-.2-8.3.3-16.8.6-31.2-2.1-24.4-4.5-41.8-13-54.6-19.3-10.7-5.3-17.5-8.4-20.3-6.5-5.7,3.7-5.6,21.3-1.7,34.1,7.6,25.4,35,35.5,43.2,38,8.3,2.5,17.3,3.4,26.5,2.6,3.4-.3,6.7,1.4,8.5,4.3,28.3,47.1,72,111.8,119.6,152.7,9.6,8.3,21.7,17.5,38.9,22.7,31,9.4,61,.9,80.7-7.9,1.4-.6,2.9-.9,4.4-.8l510.6,39.7c0-23.2.1-46.5.2-69.7,0-26.2.1-52.4.2-78.6.7-106.1-19.9-209.2-61.4-306.4-39.9-93.5-97-177.3-169.9-249.2-72.1-71.1-155.5-126.6-248-164.7-95.6-39.5-196.2-58.4-298.9-56.3-99.9,2-197.1,23.9-288.9,65-88.9,39.8-168.9,95.8-237.6,166.5-69,70.9-123.2,152.8-161,243.6-39.3,94.2-59.2,193.9-59.2,296.3-.3,54.5-.5,109.8-.7,163.2v.2c0,5-4,9-9,9v-.2Z"/>
    <path d="M1628.3,881.1c-1.6,0-3.2-.4-4.7-1.3-15.7-9.6-29.9-21.3-42.1-34.9-13-14.4-19.8-26.4-25.8-37.1-5.4-9.5-10-17.8-18.2-26.3-14.7-15.4-35.9-25.7-62.9-30.8-4.9-.9-8.1-5.6-7.2-10.5.9-4.9,5.6-8.1,10.5-7.2,30.8,5.8,55.2,17.9,72.5,36,9.7,10.2,15.2,19.7,20.9,29.9,5.8,10.3,11.9,21,23.5,33.9,11.1,12.3,23.9,22.9,38.1,31.5,4.2,2.6,5.6,8.1,3,12.4-1.7,2.8-4.7,4.3-7.7,4.3l.1.1Z"/>
    <path d="M2125,759.3h-362.5c-6.8,0-13.4-1.2-19.5-3.6-8.6-3.3-14.1-8.2-16-9.8-6.4-5.6-13.2-11.2-19.8-16.6-11.2-9.2-22.7-18.7-33.4-28.9-.2-.1-5.6-5.2-46-38.9-79.5-66.1-167.3-98.3-168.2-98.6-60-21.7-124.3-31-191-27.9h-.3c-8.9.1-17.2,4-23,10.7-5.1,6-7.5,13.3-6.6,20.2,1.7,13.2,14.5,23.4,29.3,23.4s.2,0,.3,0c69.1-.9,134.4,13,194.2,41.5,22.7,10.8,44.7,23.9,65.5,38.8,4,2.9,4.9,8.5,2,12.6-2.9,4-8.5,4.9-12.6,2-19.9-14.3-41-26.8-62.7-37.2-57.2-27.2-119.9-40.6-186.2-39.7h-.5c-23.7,0-44.3-17.1-47.2-39.1-1.6-12,2.3-24.5,10.8-34.4,9.1-10.5,22.3-16.7,36.2-16.9,69-3.3,135.6,6.5,197.8,28.9,3.7,1.3,91.5,33.5,173.6,101.7,41.2,34.3,46.5,39.3,47,39.7,10.2,9.8,21.5,19,32.4,28,6.7,5.5,13.6,11.1,20.2,16.9,1.3,1.1,5,4.4,10.6,6.6,4.1,1.6,8.4,2.4,13,2.4h362.5c5,0,9,4,9,9s-4,9-9,9l.1.2Z"/>
    <path d="M1401.4,656.9c-.9,0-1.7-.1-2.6-.4-44.1-13.3-89.1-19.3-133.9-17.9-15,.5-30,1.7-44.7,3.8-14,2.3-28.4-1.4-39.5-10.4-10.6-8.6-17-20.8-17.6-33.7-.6-11.8,3.9-23.9,12.2-33.1,8.9-9.9,21.2-15.7,34.5-16.3h.1c2.9,0,5.9-.2,8.8-.3,3-.1,6-.3,9-.4,5-.2,9.1,3.7,9.3,8.7.2,5-3.7,9.1-8.7,9.3-2.9,0-5.9.2-8.8.3-3,.1-6,.2-8.9.4-8.5.4-16.3,4.1-22,10.4-5.2,5.7-8,13.1-7.6,20.2.4,7.8,4.3,15.2,10.9,20.6,7.1,5.7,16.4,8.1,25.4,6.6h.2c15.4-2.2,31.1-3.5,46.8-4,46.7-1.5,93.7,4.8,139.7,18.7,4.8,1.4,7.5,6.5,6,11.2-1.2,3.9-4.7,6.4-8.6,6.4v-.1Z"/>
    <path d="M1236.4,688c-17,0-32.5-9.7-37.9-24.4-3.6-9.5-2.5-20.5,2.9-30.8,2.3-4.4,7.8-6.1,12.2-3.8,4.4,2.3,6.1,7.7,3.8,12.1h0c-3,5.8-3.7,11.6-2,16.2,3.1,8.3,12.9,13.5,23.5,12.6,28.9-6.8,58.7-10.6,88.4-11.1,22.8-.4,45.7,1.1,68.1,4.4,4.9.7,8.3,5.3,7.6,10.2-.7,4.9-5.3,8.3-10.2,7.6-21.4-3.1-43.3-4.6-65.2-4.2-28.7.5-57.3,4.1-85.2,10.8-.4,0-.7.1-1.1.2-1.7.2-3.3.3-5,.3l.1-.1Z"/>
    <path d="M1302.3,725c-17,0-32.5-9.7-37.9-24.4-3.6-9.5-2.5-20.5,2.9-30.8,2.3-4.4,7.8-6.1,12.2-3.8,4.4,2.3,6.1,7.7,3.8,12.1h0c-3,5.8-3.7,11.6-2,16.2,3.1,8.5,13.1,13.7,23.9,12.5,15.4-2,30.8-3.9,46.3-5.8,13.6-1.7,27.2-3.4,40.8-5.1,4.9-.6,9.4,2.9,10.1,7.8.7,4.9-2.9,9.4-7.8,10.1-13.6,1.7-27.2,3.4-40.8,5.1-15.4,1.9-30.9,3.9-46.3,5.9h-.1c-1.7.2-3.3.3-5,.3l-.1-.1Z"/>
    <path d="M1562,1067c-8.2,0-16.9-4.3-26.4-8.9-12.5-6.1-28-13.7-49.9-17.8-12.5-2.3-19.3-2.1-27.3-1.8-5.6.2-11.9.4-20.4-.3-36.8-3-73.7-19.7-109.8-49.6-3.8-3.2-4.4-8.8-1.2-12.7,3.2-3.8,8.8-4.4,12.7-1.2,33.2,27.5,66.8,42.9,99.8,45.6,7.5.6,13,.4,18.3.2,8.3-.3,16.8-.6,31.2,2.1,24.4,4.5,41.8,13,54.6,19.3,10.7,5.3,17.5,8.4,20.3,6.5,5.7-3.7,5.6-21.3,1.7-34.1-7.6-25.4-35-35.5-43.2-38-8.3-2.5-17.3-3.4-26.5-2.6-3.4.3-6.7-1.4-8.5-4.3-51.2-85.3-93.3-130.1-119.6-152.7-9.6-8.3-21.7-17.5-38.9-22.7-31-9.4-61-.9-80.7,7.9-1.5.7-3.1.9-4.7.7-122.5-14.4-247.1-28.9-367.6-43l-38.4-4.5c-4.9-.6-8.5-5-7.9-10,.6-4.9,5.1-8.5,10-7.9l38.4,4.5c119.7,14,243.4,28.4,365.2,42.7,22.5-9.7,55.9-18.3,91-7.7,20.5,6.2,34.5,16.8,45.5,26.3,26.8,23,69.2,68.1,120.4,152.4,9.6-.2,18.8,1,27.6,3.7,5.4,1.6,16,5.4,26.5,12.6,14.5,9.8,24.1,22.4,28.7,37.4,4.2,14,7.8,43.3-9.1,54.3-3.8,2.5-7.7,3.5-11.7,3.5l-.1.1Z"/>
    <path d="M1495.2,973.8c-.5,0-1.1,0-1.7-.2-30.8-5.8-55.2-17.9-72.5-36-9.7-10.2-15.2-19.7-20.9-29.9-5.8-10.3-11.9-21-23.5-33.9-11.1-12.3-23.9-22.9-38.1-31.5-4.2-2.6-5.6-8.1-3-12.4,2.6-4.2,8.1-5.6,12.4-3,15.7,9.6,29.9,21.3,42.1,34.9,13,14.4,19.8,26.4,25.8,37.1,5.4,9.5,10,17.8,18.2,26.3,14.7,15.4,35.9,25.7,62.9,30.8,4.9.9,8.1,5.6,7.2,10.5-.8,4.3-4.6,7.3-8.8,7.3h-.1Z"/>
    <path d="M1677.7,1190.3c-59.8,0-117.5-9.9-171.9-29.5-3.7-1.3-91.5-33.5-173.6-101.7-41.2-34.3-46.5-39.3-47-39.7-10.2-9.8-21.5-19-32.4-28-6.7-5.5-13.6-11.1-20.2-16.9-1.3-1.1-5-4.4-10.6-6.6-6-2.4-11.2-2.4-13-2.4-11.9,0-217.7-1.2-505-2.6-5,0-9-4.1-9-9s4-9,9-9h0c287.3,1.4,493.2,2.5,505,2.6,6.8,0,13.4,1.2,19.4,3.6,8.5,3.3,14.1,8.2,15.9,9.8,6.4,5.6,13.2,11.2,19.8,16.6,11.2,9.2,22.7,18.7,33.4,28.9.2.1,5.6,5.2,46,38.9,79.5,66.1,167.3,98.3,168.2,98.7,60,21.7,124.3,31,191,27.9h.3c8.8-.1,17.2-4,23-10.6,5.2-6,7.6-13.4,6.7-20.3-1.7-13.2-14.5-23.4-29.3-23.4s-.2,0-.3,0c-85.7,1-125.8-14.7-192.1-40.7l-1.4-.6c-23.3-9.1-45.7-22.4-66.5-39.4-3.8-3.1-4.4-8.8-1.3-12.7,3.1-3.8,8.8-4.4,12.7-1.3,19.4,15.9,40.1,28.2,61.7,36.6l1.5.6c64.3,25.2,103.2,40.4,185.4,39.4h.5c23.7,0,44.3,17.1,47.1,39.1,1.6,12-2.4,24.6-11,34.4-9.1,10.5-22.3,16.6-36.2,16.8-8.7.4-17.3.6-25.9.6l.1-.1Z"/>
    <path d="M1743.5,1158.6c-4.8,0-8.8-3.8-9-8.7-.2-5,3.7-9.1,8.7-9.3,2.9,0,5.9-.2,8.8-.3,3-.1,6-.2,8.9-.3,8.5-.4,16.3-4.1,22-10.4,5.2-5.7,8-13.1,7.6-20.2-.4-7.8-4.3-15.2-10.9-20.6-7.1-5.7-16.4-8.1-25.4-6.6h-.2c-15.4,2.2-31.1,3.5-46.8,4-46.7,1.5-93.7-4.8-139.7-18.7-4.8-1.4-7.5-6.5-6-11.2,1.4-4.8,6.5-7.5,11.2-6,44.1,13.3,89.1,19.3,133.9,17.9,15-.5,30-1.7,44.7-3.8,14-2.3,28.4,1.4,39.5,10.4,10.6,8.6,17,20.8,17.6,33.7.6,11.8-3.9,23.9-12.2,33.1-8.9,9.9-21.2,15.7-34.5,16.3h-.1c-2.9,0-5.9.2-8.8.3-3,.1-6,.3-9,.4h-.3,0Z"/>
    <path d="M1762,1078.8c-1.4,0-2.8-.3-4.2-1-4.4-2.3-6.1-7.7-3.8-12.1h0c1.8-3.3,4.3-9.9,2-16.3-3-8.3-12.8-13.5-23.4-12.5-28.9,6.8-58.7,10.6-88.4,11.1-22.8.4-45.7-1.1-68.1-4.4-4.9-.7-8.3-5.3-7.6-10.2.7-4.9,5.3-8.3,10.2-7.6,21.4,3.1,43.3,4.6,65.2,4.2,28.7-.5,57.3-4.1,85.2-10.8.4,0,.7-.1,1.1-.2,18.9-2.1,36.9,8.1,42.8,24.1,3.5,9.6,2.5,20.6-3,30.9-1.6,3.1-4.8,4.8-8,4.8h0Z"/>
    <path d="M1696.2,1041.8c-1.4,0-2.8-.3-4.2-1-4.4-2.3-6.1-7.7-3.8-12.1h0c3-5.8,3.7-11.6,2-16.2-3.1-8.5-13.1-13.7-23.9-12.5-15.4,2-30.9,3.9-46.3,5.9-13.5,1.7-27.1,3.4-40.7,5.1-4.9.6-9.4-2.9-10.1-7.8-.6-4.9,2.9-9.4,7.8-10.1,13.6-1.7,27.2-3.4,40.7-5.1,15.5-1.9,30.9-3.9,46.4-5.9h.1c18.9-2.1,36.9,8.1,42.8,24.1,3.6,9.5,2.5,20.4-2.9,30.8-1.6,3.1-4.8,4.8-8,4.8h.1Z"/>
  </g>
</svg>