<svg width="160" height="113" viewBox="0 0 160 113" fill="none" xmlns="http://www.w3.org/2000/svg">
<mask id="mask0_2935_883" style="mask-type:luminance" maskUnits="userSpaceOnUse" x="0" y="0" width="159" height="113">
<path d="M158.678 0H0.888672V112.351H158.678V0Z" fill="white"/>
</mask>
<g mask="url(#mask0_2935_883)">
<path d="M37.2499 28.2248C33.841 28.6301 31.9533 28.719 29.2272 29.8349C27.5339 30.59 25.6628 31.9003 24.2859 33.1717C23.17 34.2433 22.165 35.448 21.8708 37.0026C21.7486 37.5301 22.0484 39.34 22.0818 39.973C22.5981 46.4577 20.5161 53.0314 16.9072 58.3613C14.9085 61.2761 12.0881 63.4026 9.68404 65.418L9.35091 65.74C9.14549 65.9676 8.97337 66.1675 8.84568 66.4506C8.41817 67.4944 8.76795 69.3655 9.12884 70.5314C10.2781 74.0458 12.4823 77.4437 14.8086 80.4307C17.3014 83.5731 20.1219 86.4935 23.1422 89.153C40.0704 104.366 62.856 111.417 85.4306 108.402C97.4507 107.019 109.91 104.51 120.247 98.1861C132.118 91.0573 141.284 79.5923 146.381 66.806C148.013 62.3421 149.99 55.5187 147.447 51.3713C147.291 51.1548 147.13 50.9493 146.958 50.7661C146.919 50.7384 146.875 50.7162 146.836 50.6884C146.792 50.6273 146.747 50.6606 146.725 50.6329C146.708 50.6051 146.647 50.6329 146.625 50.6051C146.592 50.594 146.498 50.5774 146.448 50.5552C145.026 50.1832 142.378 49.7446 140.646 49.1449C139.807 48.8673 138.791 48.5064 137.964 48.1567C134.255 46.5521 130.835 44.4201 127.793 41.7052C124.184 38.5239 121.263 34.3821 118.932 30.3402C116.189 25.7764 114.096 20.7407 109.798 17.837C105.884 15.2108 101.62 15.4274 96.9511 15.9826C93.3533 16.4323 89.5946 16.8209 86.2356 17.948C80.7668 19.6081 75.9255 23.0115 70.7676 25.632C67.3975 27.3587 62.9559 28.8633 58.914 29.2631C56.1324 29.5573 53.3564 29.5018 50.6137 29.1742C45.95 28.5191 41.9081 27.5586 37.2666 28.2193L37.2555 28.2304L37.2499 28.2248ZM35.3345 9.81426C40.1759 9.30347 45.5502 9.74764 50.2972 10.7359C53.3064 11.3078 56.1491 11.8241 59.0695 11.1856C61.1071 10.8081 63.5555 9.6588 65.6542 8.60392C68.6079 7.12707 71.4894 5.55029 74.7151 4.24001C80.2283 1.9137 86.5077 0.614526 92.4372 0.29806C95.9406 0.125946 99.2052 -0.173864 102.981 0.13705C108.566 0.509037 114.157 2.61881 118.554 6.11105C129.675 14.6945 128.87 28.619 139.99 36.3086C142.189 37.8743 144.238 38.8903 146.803 39.6454C148.313 40.0562 151.389 41.0056 152.938 42.3825C157.096 45.6027 158.562 51.8765 158.062 56.6513C157.441 63.6913 154.381 70.1983 150.895 76.0002C144.016 87.1376 134.505 96.8037 122.84 102.844C113.302 107.869 102.692 110.212 92.0597 111.311C72.7941 113.843 53.7395 112.077 36.2339 103.15C24.3803 97.2423 4.86487 82.6293 1.86121 69.1767C0.128976 59.9492 8.18498 58.9054 10.4169 51.4102C11.4107 48.462 11.8438 45.0586 10.6779 42.1327C6.13628 32.3556 11.6217 21.1793 19.6444 15.1664C22.0762 13.3343 24.9966 11.9351 27.8059 11.1356C30.6208 10.3195 33.2358 10.0141 35.34 9.81426H35.3345Z" fill="black"/>
<path d="M46.8358 54.5536C46.8358 54.5536 46.7636 54.5647 46.7581 54.5536C46.7581 54.5425 46.7248 54.5036 46.7303 54.4981C46.7303 54.4981 46.7081 54.4647 46.7026 54.4703C46.6915 54.4814 46.6804 54.4814 46.6637 54.487C46.2307 55.0866 46.1141 56.1359 45.7532 57.7238C44.8038 62.4597 42.9161 67.3011 39.8625 71.1875C38.369 73.2751 35.3875 75.6847 33.8052 76.9838C33.7386 77.0338 33.733 77.0616 33.683 77.0949C33.6497 77.1226 33.5886 77.1615 33.5775 77.1837C33.5609 77.2115 33.5331 77.2337 33.5054 77.2559C33.4665 77.2781 33.4776 77.3225 33.4554 77.3447C33.4443 77.3836 33.411 77.3947 33.3999 77.4502C32.9113 79.1436 33.9662 80.9869 35.0599 82.5414C40.1401 89.3316 51.6494 96.1772 59.8665 98.4924C65.9848 100.308 72.4696 101.063 78.8323 100.497C85.1838 99.9637 91.4743 98.6146 97.315 96.1495C104.305 93.2402 110.373 88.7708 115.476 83.2465C118.424 80.0375 123.171 74.4521 123.526 70.1937V70.0216C123.515 69.9772 123.504 69.9383 123.498 69.8994C123.454 69.6163 123.282 69.7384 123.604 70.1104C123.743 70.2603 123.765 70.2714 123.554 70.2159C120.634 69.5885 117.014 69.3109 113.899 68.2949C109.929 67.0901 106.198 65.1524 102.934 62.5707C100.835 60.9384 98.9529 58.9008 97.4649 56.7022C95.9381 54.487 94.7833 51.6277 93.5119 49.8621C93.3675 49.6289 93.1676 49.479 93.0011 49.2736C92.2626 48.6629 91.3965 48.1965 90.4915 47.9022C88.1652 47.2971 86.061 48.2853 83.6403 49.0904C78.6157 51.0225 72.6917 53.2544 67.0786 54.1871C62.5481 55.0033 57.9344 55.181 53.3706 54.7979C50.6778 54.6202 49.1455 54.1705 46.8414 54.5591V54.548L46.8358 54.5536ZM37.414 44.2934C43.3991 38.5915 50.2948 39.7907 57.5124 39.3965C62.2094 39.1189 66.7566 38.4082 71.2815 37.098C81.153 34.1221 89.6865 29.8081 99.6246 36.5483C101.818 38.014 103.722 39.9795 105.099 42.228C107.131 45.4205 107.531 48.0854 109.374 50.7893C109.874 51.5277 110.512 52.2495 111.173 52.8547C113.943 55.4586 117.047 57.002 120.889 57.957C125.858 59.1007 131.26 59.8558 133.503 65.591C136.912 74.6464 128.101 84.2126 122.099 89.9367C111.539 100.069 97.9479 105.938 83.4071 106.898C69.2716 107.948 54.7641 105.505 42.3442 98.4869C35.8872 94.8448 29.0249 90.603 25.4938 83.6074C23.1841 78.8771 23.7726 73.5582 27.4481 69.5552C27.9311 68.9944 28.6695 68.1838 29.147 67.6064C31.9452 64.253 32.7725 60.2 32.989 55.9083C33.1611 51.4611 34.0828 47.5469 37.414 44.3101V44.299V44.2934Z" fill="black"/>
<path d="M78.7916 67.8898C78.7583 67.9009 78.6639 67.8565 78.6695 67.8732C78.6861 67.8843 78.7583 67.8898 78.7972 67.8732C78.3141 67.9398 76.8095 68.4895 75.9823 68.6893C70.9799 70.044 65.5167 70.1717 60.481 69.3722C60.109 69.3278 59.2762 69.2112 58.8931 69.2057H58.7487C58.7043 69.2001 58.6488 69.189 58.6321 69.2001C58.56 69.2001 58.4878 69.2057 58.4267 69.189C58.4267 69.189 58.4156 69.189 58.4156 69.1835H58.4323C58.4323 69.1835 58.4545 69.1724 58.4656 69.1668C58.4822 69.1279 58.5544 69.1224 58.5711 69.0669C58.5822 69.0558 58.5822 69.0669 58.5877 69.0613C58.5988 69.0613 58.5877 69.0336 58.5877 69.028C58.5988 69.0169 58.5711 69.0169 58.6044 68.978C58.621 68.9114 58.671 68.817 58.6599 68.7615C58.6599 68.7504 58.6599 68.7726 58.6488 68.7782C58.6155 68.8559 58.6155 68.9225 58.5933 69.078C58.5267 70.305 58.3046 72.3759 57.8493 73.7084C56.9721 76.6954 54.94 79.6213 52.647 81.5756C52.3417 81.8699 52.4416 81.8366 52.4749 81.5645C52.4416 82.1253 53.3688 83.4411 53.9795 84.0796C55.4952 85.7452 57.494 87.1554 59.5038 88.2769C64.2119 90.8475 69.7973 92.4132 75.1606 91.5249C82.5337 90.209 90.0234 85.4843 93.9598 79.1161C94.2596 78.5387 94.4872 78.1 94.5927 77.5726C94.5927 77.5337 94.5927 77.4949 94.5927 77.456C94.5927 77.4338 94.5761 77.456 94.5761 77.456C94.5261 77.5948 94.5761 77.7891 94.6038 77.9335C94.726 78.4665 95.2645 79.1216 95.8031 79.3548C95.8142 79.3548 95.7975 79.3548 95.792 79.3548H95.7587L95.5088 79.3215C90.1178 78.9273 85.0099 76.2734 81.8452 71.7763C80.8903 70.4604 80.1685 69.1335 79.6855 68.545C79.5023 68.3007 79.4023 68.2174 79.2136 68.0564C79.1692 68.0508 79.1303 68.0175 79.0914 67.9953C79.0581 67.9953 79.0304 67.9842 79.0081 67.9676C78.9526 67.9398 78.8416 67.9287 78.775 67.8898H78.7916ZM81.8341 59.1953C83.0722 59.6673 84.2382 60.3557 85.232 61.244C86.2258 62.1601 87.0753 63.3316 87.7082 64.4587C87.9358 64.8917 88.4355 65.7412 88.6631 66.1743C90.1511 69.0336 92.7661 70.9657 95.9308 71.5486L96.9912 71.7763C100.05 72.3759 102.121 74.4857 101.988 77.6892C101.566 83.4078 94.5539 88.9598 89.9901 91.6359C85.0488 94.5507 79.4245 96.4107 73.6726 96.6272C64.9948 97.0214 56.056 94.3009 49.6101 88.3436C47.206 86.1283 44.7076 81.992 46.8174 78.4332C47.4392 77.3172 48.5219 76.3956 49.127 75.646C50.0598 74.5356 50.6761 73.1754 51.0203 71.7707C51.4145 70.1773 51.0481 68.7393 51.47 66.9127C52.3639 63.3038 55.6674 61.3384 59.2318 61.4495C61.0862 61.4772 63.2126 61.716 64.9393 61.6882C67.7542 61.6549 70.6079 61.2551 73.1952 60.1836C73.5894 60.017 75.0773 59.3897 75.4604 59.2564C77.4869 58.468 79.8021 58.4292 81.8341 59.2009V59.212V59.1953Z" fill="black"/>
</g>
</svg>
